<?xml version="1.0" standalone="no"?>
<!DOCTYPE svg PUBLIC "-//W3C//DTD SVG 20010904//EN"
 "http://www.w3.org/TR/2001/REC-SVG-20010904/DTD/svg10.dtd">
<svg version="1.0" xmlns="http://www.w3.org/2000/svg"
 width="2000.000000pt" height="2984.000000pt" viewBox="0 0 2000.000000 2984.000000"
 preserveAspectRatio="xMidYMid meet">
<metadata>
Created by potrace 1.13, written by Peter Selinger 2001-2015
</metadata>
<g transform="translate(0.000000,2984.000000) scale(0.100000,-0.100000)"
fill="#000000" stroke="none">
<path d="M14340 29285 c-11 -13 -10 -30 5 -93 9 -42 23 -104 30 -137 7 -33 22
-104 34 -157 11 -54 31 -142 42 -195 12 -54 27 -125 34 -158 7 -33 24 -112 38
-175 14 -63 49 -223 78 -354 l51 -239 -31 -151 c-17 -83 -31 -159 -31 -169 0
-9 24 -42 53 -72 l53 -55 280 0 c204 0 295 -4 334 -14 30 -7 67 -16 83 -20 23
-5 35 -24 83 -124 62 -131 72 -145 164 -210 58 -42 71 -47 120 -47 45 0 55 -3
58 -18 2 -11 -6 -29 -18 -42 -22 -24 -90 -239 -90 -287 0 -15 14 -62 31 -105
l30 -78 -60 -159 c-55 -143 -61 -166 -61 -233 0 -80 -3 -86 -87 -187 -34 -41
-43 -86 -20 -103 6 -5 28 -16 47 -23 19 -8 59 -34 88 -58 l52 -44 -1 -97 c-1
-77 -6 -111 -28 -170 l-26 -73 -110 -45 c-100 -40 -116 -50 -174 -110 l-64
-66 -85 -7 -84 -7 -126 -132 c-122 -126 -129 -131 -167 -131 -34 0 -54 -11
-135 -70 -52 -39 -104 -75 -116 -81 -17 -9 -57 0 -208 45 -103 31 -200 56
-216 56 -23 0 -51 -24 -164 -143 -147 -153 -149 -156 -222 -297 -50 -95 -59
-105 -162 -162 -58 -31 -67 -59 -64 -188 l2 -115 -60 -42 c-52 -37 -61 -49
-75 -95 -9 -29 -28 -69 -43 -89 -15 -20 -53 -69 -84 -110 -224 -291 -236 -308
-243 -351 -8 -59 -42 -169 -75 -253 -48 -117 -109 -363 -135 -545 -21 -141
-31 -184 -56 -236 l-31 -63 17 -55 c22 -68 12 -98 -50 -157 -83 -79 -101 -88
-225 -104 -65 -9 -135 -25 -162 -37 -43 -19 -50 -27 -69 -77 -35 -93 -35 -114
-3 -176 l29 -55 -47 -94 c-42 -81 -48 -101 -47 -152 1 -76 3 -82 69 -151 31
-32 59 -64 64 -71 5 -8 -5 -32 -28 -65 -24 -34 -40 -72 -46 -107 -5 -30 -14
-71 -20 -90 -6 -22 -8 -77 -3 -143 l6 -109 -72 -69 c-40 -38 -79 -69 -85 -69
-7 0 -71 -5 -142 -10 -207 -17 -326 -75 -392 -192 -18 -32 -34 -48 -52 -51
-32 -7 -131 -73 -189 -127 -40 -37 -43 -43 -38 -77 8 -48 35 -73 86 -80 l41
-6 0 -118 0 -118 -64 -118 c-35 -65 -79 -148 -97 -184 l-32 -67 28 -86 29 -85
-32 -78 c-30 -72 -32 -86 -32 -192 0 -110 -2 -119 -42 -228 -41 -109 -44 -114
-68 -108 -52 12 -105 16 -118 7 -7 -5 -26 -44 -41 -88 -73 -202 -67 -192 -114
-199 -50 -9 -84 -25 -155 -76 -61 -43 -84 -44 -162 -3 -69 37 -149 28 -189
-20 -10 -12 -32 -16 -82 -16 -89 0 -109 -17 -109 -91 0 -57 12 -85 48 -115 23
-19 25 -24 15 -47 -15 -32 -143 -197 -153 -197 -4 0 -25 7 -45 16 -106 44
-229 -71 -256 -238 -14 -79 -5 -235 16 -284 8 -20 15 -60 15 -88 0 -55 -13
-83 -79 -166 -46 -58 -61 -116 -61 -228 1 -58 7 -90 24 -132 l24 -54 -54 -59
c-30 -32 -54 -62 -54 -67 0 -18 -70 -119 -164 -236 -78 -97 -104 -138 -140
-224 -54 -127 -61 -168 -41 -240 8 -30 15 -80 15 -110 l0 -55 -143 -155 c-79
-85 -182 -188 -230 -228 -79 -67 -92 -84 -147 -185 -45 -83 -71 -119 -100
-140 -76 -54 -77 -142 -3 -177 17 -8 51 -42 76 -75 25 -33 77 -100 116 -150
l70 -90 -67 -16 c-37 -8 -77 -21 -89 -27 -12 -7 -62 -58 -112 -115 -81 -94
-95 -106 -151 -126 -34 -13 -78 -38 -98 -56 -21 -18 -76 -64 -124 -101 -93
-74 -136 -126 -175 -211 -30 -65 -26 -89 22 -142 19 -21 35 -49 35 -61 0 -12
-18 -77 -40 -144 -32 -98 -49 -132 -87 -178 l-46 -58 -63 0 c-52 0 -67 -4 -93
-26 -35 -29 -85 -127 -102 -199 -7 -27 -16 -67 -21 -88 -13 -55 -45 -72 -143
-73 -52 0 -97 -7 -127 -18 -41 -16 -54 -17 -91 -6 -37 10 -50 9 -83 -5 -31
-13 -56 -15 -121 -9 -47 3 -87 12 -93 19 -6 7 -24 80 -40 161 -25 126 -30 173
-30 306 l0 157 -82 101 c-45 56 -92 106 -105 111 -14 5 -60 9 -104 9 l-79 0
-65 53 c-62 50 -65 54 -65 98 0 33 -15 83 -53 173 -30 70 -61 136 -70 147 -13
15 -30 19 -77 19 -67 0 -74 3 -221 91 -64 39 -119 64 -154 71 l-55 11 0 67 c0
76 -14 101 -83 151 -43 32 -78 37 -96 15 -6 -7 -30 -110 -51 -227 l-40 -214
-45 -42 c-49 -45 -65 -77 -65 -129 l0 -34 -322 1 -323 0 -33 45 c-31 42 -32
49 -32 135 l0 91 -39 39 c-32 32 -46 39 -79 39 -35 0 -48 -8 -108 -63 -78 -71
-361 -321 -432 -382 -26 -22 -75 -65 -109 -96 l-63 -56 -100 30 c-100 31 -100
31 -120 12 -11 -12 -39 -89 -68 -190 -40 -138 -120 -376 -157 -467 -6 -16 -22
-18 -120 -18 -131 0 -128 2 -171 -109 -15 -40 -37 -79 -49 -87 -11 -7 -72 -36
-135 -64 -63 -28 -122 -59 -131 -68 -9 -9 -28 -52 -44 -96 l-28 -78 -74 7
c-58 5 -79 4 -97 -8 -12 -9 -58 -79 -101 -157 -68 -121 -87 -148 -133 -184
-90 -68 -273 -216 -343 -276 -67 -57 -328 -347 -341 -378 -4 -10 -7 -32 -7
-51 -1 -30 -3 -33 -23 -27 -49 15 -104 16 -128 4 -14 -8 -35 -32 -48 -55 -16
-29 -36 -48 -67 -63 -46 -22 -78 -58 -88 -98 -7 -31 9 -85 33 -107 25 -23 27
-79 3 -101 -10 -8 -34 -25 -53 -38 -19 -12 -41 -34 -48 -49 -20 -41 6 -80 121
-182 93 -82 97 -87 97 -127 0 -38 -6 -48 -70 -114 l-70 -72 0 -99 c0 -94 -2
-104 -45 -211 -48 -120 -51 -138 -33 -188 10 -28 7 -60 -22 -213 l-33 -179
-33 -7 c-50 -9 -67 -31 -118 -155 -77 -186 -188 -374 -264 -448 -70 -68 -70
-67 -36 -155 26 -68 15 -81 -69 -85 -58 -3 -69 -6 -87 -29 -18 -23 -20 -40
-20 -147 l0 -122 -41 -39 c-48 -47 -99 -130 -99 -163 0 -12 7 -39 15 -58 14
-34 14 -37 -12 -71 -51 -67 -26 -147 65 -209 37 -25 139 -41 155 -25 7 7 74
11 189 11 176 0 178 0 193 24 22 33 12 64 -44 130 -34 40 -58 84 -84 154 -21
53 -37 101 -37 106 0 27 53 -46 76 -106 26 -64 85 -148 104 -148 5 0 35 -12
65 -26 80 -36 115 -30 142 24 0 2 18 -8 40 -22 21 -13 57 -31 81 -38 39 -12
43 -16 38 -38 -19 -83 -17 -131 13 -300 58 -322 54 -307 121 -378 68 -72 67
-66 47 -228 -7 -55 -10 -111 -7 -124 4 -18 38 -40 151 -99 106 -56 157 -89
190 -123 l46 -48 101 0 102 0 14 -34 c15 -37 59 -66 98 -66 25 0 57 18 101 58
l27 26 0 -43 c0 -59 19 -89 95 -154 l67 -57 144 0 c131 0 146 2 164 20 22 22
27 81 10 124 l-10 26 61 0 c56 0 64 3 95 34 19 19 34 42 34 52 0 17 9 19 70
19 74 0 79 -4 55 -45 -8 -14 -14 -41 -15 -61 0 -47 34 -71 107 -77 l51 -4 5
-52 c2 -28 8 -61 12 -73 11 -34 -11 -29 -56 12 -43 39 -78 44 -134 21 -45 -19
-55 -42 -55 -130 0 -68 -2 -76 -22 -87 -54 -28 -51 -45 32 -199 67 -125 70
-132 77 -222 10 -114 17 -119 136 -109 l78 7 -61 -56 c-83 -74 -81 -83 40
-181 52 -42 138 -121 190 -175 109 -114 291 -359 319 -431 11 -26 48 -139 82
-249 l62 -201 -29 -40 c-16 -22 -48 -66 -72 -97 l-44 -57 -34 -227 c-19 -125
-45 -299 -59 -387 -81 -518 -76 -453 -73 -870 l3 -380 180 -103 c99 -57 199
-112 223 -123 43 -19 80 -19 1743 -19 1686 0 1699 0 1719 20 16 16 20 33 20
85 0 54 5 72 26 105 27 41 34 79 21 116 -7 21 -4 21 125 28 73 4 234 13 358
21 l225 13 100 -46 100 -47 616 -3 616 -2 116 35 116 35 82 -36 c63 -28 89
-34 113 -29 113 25 263 12 356 -31 33 -15 95 -31 155 -39 55 -8 140 -21 189
-31 78 -15 106 -15 250 -4 282 21 376 23 510 10 148 -13 200 -5 322 50 72 34
111 37 155 15 16 -9 53 -20 81 -25 39 -8 62 -20 90 -47 37 -36 38 -39 38 -110
0 -127 -163 -113 1328 -113 1117 0 1291 2 1308 15 13 10 44 14 98 15 78 0 79
0 122 -40 24 -22 49 -40 56 -40 26 0 294 93 320 111 14 11 30 19 35 19 13 0
69 -53 82 -79 12 -21 70 -51 179 -93 28 -11 75 -39 104 -63 92 -79 181 -92
276 -39 42 23 45 23 68 6 21 -15 24 -23 19 -62 -7 -56 10 -90 55 -112 47 -23
99 -22 162 2 l51 19 43 -39 c33 -31 52 -40 78 -40 19 0 58 -5 86 -11 68 -15
86 -9 155 52 74 65 128 99 157 99 13 0 67 -30 120 -67 95 -64 98 -68 98 -104
0 -81 15 -94 147 -133 l62 -19 123 60 c203 99 157 97 460 19 145 -38 292 -76
328 -85 55 -14 71 -23 115 -69 91 -96 372 -256 471 -267 93 -11 94 -11 94 -58
1 -35 12 -58 63 -132 81 -117 93 -120 181 -36 61 59 64 61 117 61 61 0 79 11
79 49 0 14 -36 152 -81 306 -80 277 -108 345 -145 345 -23 0 -19 96 6 128 16
19 20 38 19 76 -1 28 3 70 10 94 8 27 10 68 5 110 -5 59 -4 70 14 92 l21 25
49 -27 c28 -16 59 -28 71 -28 29 0 94 61 116 111 19 41 19 41 -3 82 -12 23
-22 52 -22 65 0 12 -38 97 -85 189 -85 166 -85 167 -85 244 0 79 -15 132 -51
178 -24 30 -24 47 1 95 18 35 19 58 18 234 l-1 194 -35 34 c-30 29 -36 43 -40
88 -4 52 -3 55 27 70 44 23 54 49 55 150 l1 91 -51 81 c-52 82 -138 194 -158
205 -6 4 -32 10 -57 13 l-46 7 -5 63 c-7 84 -37 136 -105 181 -64 43 -99 51
-147 35 -24 -7 -41 -8 -49 -2 -23 17 -60 21 -104 9 l-44 -11 -55 59 c-31 33
-97 103 -148 155 -50 52 -282 295 -516 540 -233 245 -466 488 -516 540 -155
161 -171 180 -281 335 -58 82 -130 182 -158 220 -88 119 -105 149 -135 246
-35 110 -37 124 -13 115 9 -4 35 -9 58 -12 35 -4 51 2 134 53 104 64 117 78
108 116 -8 31 -66 92 -98 102 -35 11 -80 47 -89 71 -5 12 -19 106 -31 209 -21
177 -25 192 -54 234 -17 25 -61 91 -97 146 -37 55 -80 114 -96 130 -16 17 -83
57 -148 90 -139 70 -336 202 -380 254 -17 20 -63 75 -101 123 l-70 87 -13 128
c-7 70 -17 136 -22 147 -7 12 -4 39 8 87 16 63 16 72 2 126 -9 32 -19 81 -23
108 -4 28 -19 88 -33 135 -25 79 -26 95 -23 240 8 365 10 337 -30 410 -43 79
-101 126 -164 136 -37 5 -57 17 -105 62 -33 30 -60 59 -60 63 0 5 47 130 105
278 58 148 105 274 105 280 0 7 -16 43 -35 81 -19 38 -35 76 -35 83 0 8 19 79
43 158 l44 144 -23 242 c-20 213 -26 246 -46 277 -41 64 -101 69 -145 12 l-20
-25 -29 30 c-16 17 -47 35 -71 41 -45 11 -60 27 -86 98 -11 30 -33 59 -62 83
-37 31 -45 44 -45 72 0 51 19 84 61 105 20 11 81 67 135 125 88 93 103 105
133 105 29 0 359 133 462 185 14 8 58 63 97 122 73 110 84 143 61 185 -11 20
-5 40 52 163 10 22 84 189 164 370 81 182 152 335 158 342 7 6 56 28 110 47
54 19 109 41 121 50 27 17 220 473 236 554 5 28 24 85 41 127 27 65 38 79 70
96 21 10 43 28 49 38 5 11 10 71 10 134 0 105 2 119 28 169 34 68 65 106 129
155 27 21 65 50 84 64 19 15 50 29 70 33 46 8 110 54 138 99 20 33 62 65 126
98 33 16 42 41 27 73 -6 11 -13 34 -17 49 -6 30 -2 36 150 222 36 44 65 85 65
91 0 6 18 39 41 74 75 116 115 261 104 377 -6 61 -12 81 -31 99 -12 13 -30 24
-39 24 -9 0 -50 11 -93 26 l-77 25 -123 307 c-110 273 -125 318 -139 412 -14
98 -19 113 -84 232 -114 210 -144 275 -217 463 -134 349 -117 319 -247 429
-63 54 -117 107 -120 119 -4 12 -20 57 -37 99 -43 110 -118 173 -235 198 -99
21 -93 17 -93 58 0 44 -4 51 -50 81 -19 13 -64 54 -100 90 -98 100 -146 131
-201 131 -42 0 -56 7 -150 77 -131 97 -272 201 -369 272 -89 65 -162 127 -330
281 -70 63 -174 158 -233 210 -105 94 -106 95 -107 141 0 42 -6 52 -76 135
-42 49 -95 109 -118 134 -23 25 -93 104 -156 175 -207 236 -405 459 -436 490
-17 16 -65 63 -107 102 l-77 73 60 92 c33 51 60 96 60 100 0 4 35 26 79 47
109 55 174 137 287 362 46 93 87 169 92 169 4 0 148 11 321 24 l314 24 203
-44 c112 -24 275 -64 361 -88 87 -25 175 -49 195 -54 34 -9 51 -5 194 54 86
35 168 64 183 64 14 0 98 -14 186 -30 88 -16 170 -30 181 -30 12 0 45 22 75
50 l53 50 170 0 169 0 209 -77 c204 -74 210 -76 256 -65 167 40 561 144 580
152 19 8 23 17 20 42 -3 30 -18 42 -212 168 -203 132 -211 139 -303 245 -52
61 -119 139 -150 173 -31 35 -72 85 -93 110 -20 26 -73 84 -117 129 l-81 82
-4 68 -4 68 -107 142 c-104 138 -109 142 -160 157 -74 21 -91 43 -83 101 4 25
14 62 23 82 19 46 10 132 -18 167 -10 13 -19 27 -19 30 0 3 -43 84 -96 181
l-96 176 26 55 c20 42 26 70 26 121 0 60 -6 79 -56 187 l-56 121 -14 226 c-7
124 -18 237 -24 250 -10 22 -5 42 41 150 l53 124 6 160 5 160 54 80 c30 44 75
99 99 122 l45 42 -6 61 c-8 76 -16 91 -71 130 l-43 31 -26 122 c-15 71 -22
123 -16 125 5 2 16 16 24 32 11 22 12 35 4 59 -9 26 -7 35 12 62 14 20 24 52
27 85 4 44 0 61 -29 114 -19 37 -44 67 -60 76 l-28 14 4 109 c2 60 8 119 14
130 6 11 11 40 11 65 0 39 -4 49 -30 68 -25 18 -30 29 -30 62 -1 55 -29 114
-75 155 -37 32 -41 33 -95 27 l-58 -7 -37 50 c-20 28 -50 60 -67 72 l-30 22 8
76 c9 91 7 258 -6 399 -11 119 -36 186 -87 232 -25 23 -33 38 -30 54 19 78 18
95 -23 251 -22 88 -45 170 -50 183 -11 26 -65 52 -108 52 -15 0 -43 11 -62 25
-20 15 -47 25 -67 25 -32 0 -33 1 -33 45 0 55 -21 79 -82 95 -58 15 -116 40
-130 57 -24 29 -74 47 -133 48 l-60 0 -3 50 c-2 27 2 68 8 91 15 53 5 72 -60
114 -40 26 -49 36 -45 54 9 40 35 199 35 215 0 9 -17 39 -37 66 -107 142 -178
232 -196 248 -18 16 -56 17 -492 17 -412 0 -474 -2 -485 -15z m937 -97 c11
-13 55 -69 98 -126 l78 -102 -14 -88 c-7 -48 -13 -112 -14 -142 l0 -55 52 -33
c47 -31 51 -36 42 -59 -18 -47 -11 -137 14 -174 30 -44 60 -59 123 -59 43 0
61 -6 104 -35 29 -20 79 -43 111 -53 59 -17 59 -17 59 -55 0 -57 24 -95 64
-103 19 -3 40 -3 46 1 6 4 23 -3 36 -16 17 -16 42 -25 77 -29 l52 -5 34 -120
c28 -99 34 -138 35 -225 2 -109 11 -141 46 -160 60 -32 87 -217 75 -511 l-7
-176 37 -36 c21 -21 41 -37 46 -37 4 0 20 -20 35 -45 38 -60 76 -79 143 -73
47 5 53 3 70 -21 10 -14 21 -53 24 -85 5 -46 12 -65 35 -90 28 -30 28 -33 16
-71 -15 -49 -18 -279 -4 -306 6 -10 24 -26 40 -34 30 -16 70 -80 70 -112 0
-10 -12 -36 -25 -58 -14 -22 -25 -56 -25 -75 0 -19 -7 -44 -15 -54 -20 -27
-20 -41 12 -205 l28 -144 53 -45 c60 -51 68 -84 28 -121 -14 -13 -58 -73 -98
-134 l-73 -110 -5 -166 -6 -166 -52 -122 c-57 -133 -59 -143 -38 -176 10 -15
18 -86 26 -237 6 -118 14 -224 17 -235 3 -11 28 -67 55 -124 70 -148 72 -187
13 -291 -8 -14 -15 -33 -15 -43 0 -17 211 -420 231 -442 14 -14 11 -78 -6
-125 -8 -23 -15 -68 -15 -100 0 -80 33 -125 115 -154 57 -20 63 -26 147 -136
79 -104 87 -120 93 -170 10 -93 13 -99 104 -193 82 -87 393 -441 436 -499 11
-14 96 -76 189 -137 95 -62 162 -113 155 -116 -38 -13 -419 -109 -450 -113
-28 -3 -83 14 -230 69 l-194 73 -179 4 c-98 2 -189 1 -202 -2 -13 -4 -45 -27
-70 -51 -25 -25 -53 -45 -62 -45 -9 0 -94 14 -189 31 l-172 31 -165 -66 -166
-66 -157 44 c-217 61 -253 70 -453 112 l-175 36 -308 -22 c-169 -13 -310 -20
-314 -17 -9 9 -8 63 2 109 5 27 4 43 -6 54 -7 8 -63 40 -123 70 -113 57 -120
58 -200 38 -28 -7 -37 1 -165 134 l-136 140 -74 7 c-45 5 -95 17 -129 33 -50
23 -60 24 -99 14 -58 -16 -132 -14 -163 3 -35 20 -238 20 -285 0 -42 -17 -53
-41 -61 -135 -6 -60 -4 -72 15 -98 l21 -30 -69 -21 c-38 -12 -73 -21 -78 -21
-4 0 -28 -13 -52 -29 -40 -27 -46 -28 -65 -15 -31 21 -116 17 -205 -11 -76
-24 -82 -25 -111 -10 -17 9 -30 20 -28 24 2 5 27 27 55 50 95 75 134 177 101
267 -10 28 -8 37 14 76 21 35 31 79 53 223 29 200 78 404 129 540 45 119 73
211 81 260 4 26 23 61 53 101 270 351 300 392 308 429 8 31 22 50 69 88 84 67
89 80 82 204 l-7 102 33 24 c17 14 50 34 72 45 40 20 74 72 162 243 22 45 254
289 274 289 8 0 103 -25 211 -57 l197 -56 35 24 c18 13 73 52 120 87 73 52 93
62 127 62 40 0 48 6 179 135 l137 135 73 0 74 0 77 78 c72 72 84 80 189 122
65 26 116 53 122 64 6 11 26 65 44 120 34 98 34 104 28 209 l-7 107 -69 65
c-37 36 -75 65 -83 65 -23 0 -19 10 32 75 l47 60 7 105 c6 95 11 118 58 235
28 72 51 143 51 158 0 15 -14 63 -30 107 l-31 79 32 108 c27 93 36 112 60 126
35 19 37 50 13 135 -24 83 -27 85 -104 78 -65 -7 -66 -7 -124 35 -56 40 -62
49 -123 175 -34 73 -71 138 -82 143 -10 6 -60 20 -110 31 -79 17 -126 20 -359
20 l-269 0 -23 25 c-26 27 -26 25 18 242 l19 92 -154 708 c-84 389 -153 711
-153 716 0 4 184 7 408 7 l409 0 20 -22z m-1590 -7279 c50 -10 71 -10 116 1
51 12 58 11 89 -8 21 -13 59 -23 108 -27 l75 -7 135 -138 c148 -151 167 -163
234 -139 41 15 42 15 132 -29 l90 -45 -2 -73 c-1 -41 -6 -80 -12 -87 -5 -6
-49 -90 -97 -186 -109 -220 -157 -281 -263 -337 -77 -41 -77 -42 -159 -169
-48 -73 -83 -139 -83 -153 0 -19 37 -61 153 -176 84 -83 230 -239 324 -346 93
-108 177 -202 185 -210 7 -8 82 -93 166 -188 149 -169 152 -174 152 -219 0
-54 -9 -45 289 -313 107 -96 222 -200 256 -230 33 -30 116 -95 184 -145 67
-49 198 -146 289 -214 162 -120 169 -124 227 -129 60 -5 60 -5 147 -93 49 -48
101 -96 118 -106 26 -15 30 -23 30 -64 0 -59 16 -73 103 -88 159 -27 207 -69
253 -223 18 -60 47 -94 159 -186 49 -41 96 -86 103 -99 8 -14 56 -133 108
-266 63 -162 127 -304 194 -430 97 -182 101 -192 115 -290 13 -89 31 -141 142
-417 69 -173 133 -323 141 -332 8 -10 59 -32 112 -50 l98 -31 6 -51 c8 -72
-33 -213 -84 -289 -17 -25 -37 -61 -45 -80 -8 -19 -60 -90 -116 -158 -56 -68
-106 -135 -111 -149 -5 -14 -7 -46 -4 -71 6 -45 5 -47 -34 -73 -22 -14 -58
-50 -81 -78 -47 -60 -51 -63 -99 -72 -19 -3 -62 -26 -95 -51 -59 -44 -61 -45
-138 -45 -58 0 -92 -6 -130 -22 -51 -21 -171 -114 -232 -178 -29 -30 -32 -31
-91 -25 -59 7 -68 5 -200 -50 -294 -121 -367 -155 -501 -232 -164 -95 -228
-126 -247 -121 -7 2 -83 50 -168 108 -136 92 -161 113 -204 173 -26 38 -57 73
-68 79 -13 7 -66 9 -152 5 -73 -4 -146 -4 -163 -1 -30 6 -31 9 -31 56 0 46
-49 265 -70 315 -6 14 -30 29 -71 44 -60 22 -63 24 -91 86 -20 45 -40 72 -71
94 -48 35 -52 41 -61 89 -5 29 -20 47 -74 91 -64 53 -70 61 -101 145 -19 49
-39 95 -46 102 -8 9 -99 23 -260 40 l-248 27 -28 50 c-20 36 -46 63 -96 97
-37 26 -75 48 -83 48 -9 0 -78 -20 -153 -45 -76 -25 -145 -45 -154 -45 -8 0
-46 11 -83 24 l-68 25 -38 -21 c-22 -11 -99 -54 -173 -96 l-134 -76 -41 46
c-47 53 -84 73 -161 91 -51 11 -59 17 -93 67 -39 57 -74 80 -152 101 l-45 12
-95 -58 c-52 -32 -98 -62 -102 -69 -4 -6 -8 -35 -8 -63 l0 -53 -51 0 c-28 0
-102 -12 -164 -27 l-113 -26 -79 45 c-43 25 -114 66 -158 92 l-80 46 -130 0
c-117 0 -143 4 -265 36 -96 25 -149 45 -185 69 -31 20 -83 42 -137 55 -98 26
-91 15 -104 157 -5 58 -3 77 10 97 24 37 20 80 -14 140 -42 75 -54 82 -140 90
-178 16 -218 22 -238 36 -31 22 -404 362 -504 459 l-87 84 0 76 c1 43 -5 99
-14 129 -25 83 -31 164 -17 239 13 72 27 101 68 146 30 32 56 34 97 7 56 -37
77 -29 147 61 35 45 77 99 95 121 63 76 68 148 17 210 l-37 43 66 5 c57 4 70
9 99 38 19 17 37 32 41 32 3 0 32 -11 62 -26 31 -14 79 -28 106 -31 48 -6 53
-4 132 49 63 43 94 57 135 63 28 4 61 14 72 23 10 10 38 69 61 132 22 63 44
119 48 123 4 4 28 2 52 -4 66 -18 93 -7 114 43 86 213 95 246 95 365 0 110 2
118 37 200 l36 85 -28 87 -28 88 83 159 c46 87 89 170 97 184 9 17 13 69 13
166 0 166 -7 183 -80 193 l-44 6 56 42 c31 23 75 48 98 55 44 13 59 28 113
113 26 40 45 56 99 83 61 29 84 34 223 47 85 8 165 19 177 26 43 23 139 114
167 159 28 44 29 47 23 158 -6 147 14 242 69 326 57 85 54 103 -31 190 -66 68
-70 75 -70 119 0 34 12 69 45 138 25 51 45 100 45 109 0 10 -13 43 -29 75
l-29 58 17 46 c19 52 14 50 176 74 l90 14 64 -33 c74 -39 93 -41 181 -14 77
24 149 26 176 5 28 -21 43 -19 104 19 50 31 86 44 208 76 57 15 70 45 42 100
-11 21 -25 42 -31 45 -6 5 -8 23 -4 49 13 83 3 78 133 73 65 -3 145 -11 179
-18z m-3517 -5530 c52 -47 135 -120 183 -163 l88 -78 107 -14 c59 -7 127 -15
151 -16 41 -3 47 -7 73 -50 l29 -47 -22 -30 -21 -29 16 -133 c9 -76 21 -139
29 -146 7 -7 55 -25 107 -39 62 -17 108 -36 133 -56 29 -23 73 -40 185 -69
135 -36 158 -39 279 -39 l132 0 153 -90 c84 -50 162 -93 174 -96 11 -3 75 9
142 25 73 19 146 31 185 31 40 0 69 5 75 13 6 7 12 39 14 72 l3 60 73 44 c70
43 73 44 113 32 31 -10 49 -25 82 -71 45 -62 77 -82 157 -95 38 -6 54 -16 105
-71 42 -45 67 -64 84 -64 14 0 100 43 192 95 l168 94 62 -24 c35 -14 69 -25
76 -25 8 0 78 21 158 47 l144 47 54 -36 c40 -27 61 -50 83 -92 17 -34 37 -59
49 -61 11 -3 123 -16 249 -29 125 -14 231 -28 235 -31 3 -3 22 -45 41 -93 31
-77 41 -91 95 -134 33 -27 64 -60 69 -76 22 -69 30 -81 75 -114 38 -29 52 -48
70 -97 23 -60 23 -60 91 -87 l68 -26 26 -104 c17 -68 26 -131 26 -182 0 -117
-1 -117 218 -118 l175 -2 50 -66 c39 -52 75 -83 175 -153 70 -47 148 -102 174
-120 26 -18 59 -33 72 -33 34 0 116 39 292 141 84 48 211 111 281 140 356 147
326 137 389 127 67 -10 65 -12 189 101 90 82 155 121 201 121 29 0 31 -11 4
-35 -11 -10 -38 -55 -60 -100 -39 -80 -40 -85 -40 -186 l0 -104 -38 -22 c-32
-18 -42 -34 -74 -116 -21 -53 -43 -119 -49 -147 -6 -28 -28 -93 -49 -143 -21
-51 -61 -148 -90 -217 -28 -69 -57 -130 -63 -136 -7 -7 -61 -30 -122 -53 -60
-22 -115 -47 -122 -53 -12 -13 -43 -80 -278 -611 -124 -280 -127 -289 -121
-340 7 -51 6 -53 -51 -137 l-58 -84 -200 -88 c-173 -75 -205 -86 -239 -81 -40
5 -40 5 -155 -114 -146 -151 -151 -154 -197 -114 -43 39 -60 39 -110 1 -36
-27 -45 -29 -127 -30 -86 0 -89 -1 -120 -32 l-32 -32 -268 -26 -268 -26 -42
28 c-70 47 -113 41 -332 -47 l-188 -75 -1637 0 -1636 0 -45 101 -44 101 -123
86 c-312 220 -327 229 -388 240 -58 10 -59 10 -189 -48 -162 -73 -195 -78
-279 -50 -57 19 -73 31 -160 120 -54 55 -105 100 -114 100 -9 0 -82 -40 -162
-90 l-145 -90 -69 0 c-63 0 -76 -4 -155 -47 -62 -33 -113 -72 -181 -138 -75
-72 -106 -95 -145 -108 -176 -56 -375 -108 -465 -123 -58 -9 -135 -29 -172
-44 l-67 -28 -6 41 c-4 23 -13 56 -20 72 -7 17 -21 53 -31 80 -9 28 -31 68
-47 90 -26 37 -28 46 -25 107 3 60 7 71 36 101 42 43 45 101 7 145 -25 30
-124 73 -199 88 -27 5 -36 11 -32 21 5 12 36 242 36 264 0 4 12 4 28 0 17 -5
44 -2 72 7 25 7 88 17 140 21 166 12 215 51 240 192 13 74 42 144 72 176 18
19 32 23 81 23 58 0 62 2 102 44 75 78 103 130 151 276 52 162 52 182 -1 249
-19 24 -35 47 -35 51 0 3 17 34 38 68 26 42 57 75 102 108 36 26 93 71 127
100 36 30 83 59 113 69 54 18 82 44 192 175 49 59 59 66 104 73 74 13 135 39
157 69 19 26 19 27 1 62 -31 58 -267 357 -292 370 l-24 13 38 30 c26 21 58 66
94 133 46 86 68 114 134 174 102 92 133 123 236 236 47 52 94 103 105 114 63
64 75 88 75 145 0 31 -7 81 -15 111 -22 82 -18 120 20 211 39 90 63 126 174
264 40 50 76 97 79 105 16 42 95 150 136 187 25 23 46 49 46 57 0 9 -12 46
-27 83 -23 56 -28 83 -28 153 1 93 7 110 62 171 l36 40 121 -118 c67 -65 164
-157 216 -204z m-4450 -2383 c0 -41 3 -82 6 -91 9 -22 50 -41 109 -50 32 -4
78 -24 130 -54 176 -105 189 -111 246 -111 l54 0 48 -115 c34 -84 47 -129 47
-165 0 -56 6 -65 118 -159 l73 -61 87 0 c98 0 95 2 185 -112 l37 -46 0 -151
c0 -126 5 -174 30 -299 16 -81 33 -159 38 -173 6 -14 31 -36 60 -52 44 -24 61
-27 141 -27 106 0 99 11 80 -131 -13 -93 -24 -121 -71 -174 -48 -56 -69 -62
-238 -69 -208 -9 -202 -5 -199 -144 2 -117 -8 -188 -35 -242 -15 -30 -35 -43
-144 -95 -69 -33 -141 -70 -159 -82 l-33 -23 -83 20 c-45 11 -104 27 -131 35
-71 22 -149 20 -170 -4 -9 -10 -26 -51 -37 -91 -12 -42 -51 -126 -92 -199 -39
-69 -80 -143 -91 -164 -21 -39 -21 -39 -73 -34 -101 10 -298 -18 -473 -69 -91
-25 -170 -51 -177 -56 -7 -5 -18 -43 -24 -84 -7 -41 -15 -74 -18 -74 -4 0 -20
22 -38 49 l-32 49 -109 26 c-59 14 -115 26 -124 26 -8 0 -55 -29 -103 -65 -48
-36 -91 -65 -95 -65 -5 0 -56 16 -114 35 -58 19 -118 35 -133 35 -14 0 -61
-14 -103 -30 l-76 -31 -114 55 c-83 41 -127 56 -157 56 -40 0 -44 3 -82 59
-62 90 -63 91 -146 91 l-74 0 -67 75 c-37 42 -78 78 -91 81 -28 7 -27 2 -3 59
25 58 25 83 1 109 -19 21 -19 21 78 121 54 55 127 126 164 158 65 57 67 58 92
41 39 -26 70 -11 105 49 26 43 30 60 26 97 -3 25 2 79 11 120 l15 76 -52 184
c-29 102 -57 199 -61 216 -5 17 -25 51 -44 75 -31 39 -35 51 -35 103 0 49 -4
64 -30 96 l-30 38 63 178 c35 99 79 234 98 302 19 67 38 122 44 122 5 0 44
-11 85 -24 41 -12 83 -20 92 -17 14 5 305 254 379 324 14 13 90 81 169 150
109 94 148 123 157 115 9 -7 13 -40 13 -103 0 -91 0 -93 38 -140 20 -27 47
-59 59 -72 l22 -23 369 0 c297 0 372 3 387 14 14 10 20 30 23 79 4 62 6 67 48
107 49 47 50 50 90 268 16 83 32 152 36 152 4 0 8 -33 8 -74z m-2206 -1448
c10 -14 16 -44 16 -79 0 -50 4 -61 37 -102 30 -37 44 -71 80 -198 68 -241 69
-246 52 -325 -10 -42 -12 -80 -8 -98 11 -39 -15 -91 -39 -80 -53 22 -72 17
-115 -29 -23 -25 -66 -63 -95 -85 -57 -42 -226 -222 -244 -260 -10 -19 -7 -27
17 -52 l29 -30 -27 -55 c-15 -31 -27 -61 -27 -69 0 -17 29 -42 60 -51 14 -3
59 -42 101 -86 l75 -79 75 0 74 0 50 -73 51 -72 59 -6 c45 -4 89 -20 178 -64
l119 -58 92 37 91 36 125 -41 c69 -23 126 -43 127 -44 2 -1 6 -15 9 -32 6 -30
5 -30 -55 -43 -68 -14 -85 -29 -95 -80 -6 -31 -17 -41 -104 -94 -143 -88 -132
-70 -132 -209 l0 -120 -47 -86 c-25 -47 -68 -114 -96 -148 -46 -57 -54 -63
-106 -74 -73 -15 -104 -31 -138 -74 -21 -27 -35 -35 -60 -35 -56 0 -66 -21
-57 -119 6 -77 11 -94 52 -166 45 -78 71 -117 158 -241 41 -57 43 -62 26 -76
-9 -9 -29 -18 -45 -22 -49 -12 -82 -55 -121 -158 -46 -124 -46 -141 -1 -170
26 -18 33 -28 29 -43 -7 -24 -6 -22 -111 -113 -74 -65 -82 -76 -92 -122 -6
-28 -11 -77 -11 -108 0 -54 -2 -58 -35 -79 -19 -13 -53 -47 -75 -77 -35 -47
-43 -65 -47 -116 l-6 -60 -63 0 c-45 0 -67 -5 -79 -16 -43 -44 -153 -181 -158
-199 -4 -11 -13 -74 -21 -139 -14 -114 -14 -121 5 -169 l20 -49 -79 -122
c-101 -155 -131 -241 -113 -322 17 -75 33 -84 152 -84 l96 0 22 -48 23 -48
-44 -72 -43 -72 -68 0 c-38 0 -77 -4 -87 -10 -15 -8 -93 -142 -158 -271 -7
-14 -44 -56 -81 -93 -95 -95 -105 -90 -96 48 7 101 7 104 -16 120 -47 33 -76
22 -147 -54 -36 -38 -68 -70 -73 -70 -4 0 -16 17 -26 37 -25 52 -52 63 -163
63 l-94 0 -36 39 c-24 27 -74 59 -160 102 -69 34 -126 63 -128 64 -1 1 4 55
13 119 8 64 15 128 15 141 0 17 -22 49 -68 97 l-69 73 -43 233 c-42 232 -42
234 -26 291 25 89 22 107 -21 134 -21 13 -56 30 -78 37 -22 7 -56 25 -75 40
-76 57 -110 73 -135 62 -14 -6 -26 -23 -30 -41 -4 -17 -9 -31 -11 -31 -3 0
-23 9 -45 21 -31 15 -45 31 -60 67 -11 26 -28 65 -37 86 -27 63 -121 146 -166
146 -11 0 -30 -10 -43 -22 -19 -18 -23 -32 -23 -85 0 -74 52 -217 106 -295
l33 -46 -177 -4 c-176 -3 -177 -3 -209 22 -18 14 -33 29 -33 33 0 5 18 29 40
54 47 54 49 71 14 112 -36 43 -26 73 42 138 29 28 58 63 64 78 5 14 10 71 10
126 l0 99 53 0 c61 0 79 14 118 89 l23 44 -21 61 -22 60 22 15 c39 27 68 64
119 151 28 47 53 92 56 100 3 8 16 31 28 50 12 19 46 90 74 157 l53 121 42 11
c23 6 47 17 54 25 6 8 30 111 53 231 39 206 40 218 25 250 -16 33 -15 36 29
144 41 104 44 117 44 203 l-1 93 68 61 67 62 4 71 c6 95 0 112 -55 163 -27 25
-72 67 -102 95 l-54 50 36 21 c45 29 65 60 77 121 11 59 -2 114 -31 135 -31
21 -20 48 28 66 45 17 83 46 83 65 0 7 8 23 18 35 15 19 21 20 47 10 60 -23
113 -28 135 -13 16 11 20 25 20 73 l0 59 135 154 c130 149 202 216 389 362
200 157 204 161 281 301 l72 129 89 5 c49 3 94 8 101 13 6 4 26 44 43 90 17
45 37 87 43 94 7 6 68 36 137 67 69 31 131 63 139 71 8 8 26 45 40 82 l26 68
110 6 c61 3 113 6 117 7 4 1 14 -8 22 -20z m3811 -578 c126 -43 144 -65 95
-115 -24 -25 -33 -46 -42 -99 -13 -77 -4 -120 43 -195 40 -66 94 -223 81 -236
-3 -3 -25 -5 -49 -5 -68 0 -83 -22 -83 -124 0 -47 -5 -106 -11 -133 -10 -43
-9 -54 10 -91 15 -29 21 -60 21 -106 0 -60 2 -66 30 -88 l30 -23 -58 -74 c-31
-40 -96 -122 -144 -183 -49 -61 -88 -119 -88 -130 0 -11 9 -40 19 -66 10 -26
25 -79 31 -118 l13 -71 -45 -69 -45 -69 5 -86 4 -85 -113 -84 c-63 -46 -117
-88 -121 -94 -4 -6 -8 -77 -8 -158 0 -136 -2 -148 -18 -148 -10 0 -54 -23 -99
-50 -89 -55 -80 -39 -131 -215 -12 -38 -38 -127 -59 -197 l-37 -128 -64 0 -63
0 -77 65 c-42 36 -84 65 -92 65 -9 0 -101 -49 -205 -108 -105 -60 -220 -125
-256 -145 l-67 -38 -103 17 c-93 15 -108 20 -139 50 -25 24 -54 38 -101 50
l-66 16 -12 66 c-15 79 -25 100 -55 112 -20 7 -24 17 -29 76 -6 84 -18 94
-106 94 -79 0 -287 -35 -307 -51 -8 -6 -14 -28 -14 -49 0 -36 -4 -41 -84 -99
-86 -62 -92 -71 -123 -175 -5 -17 -14 -31 -19 -33 -5 -2 -40 38 -79 88 -65 86
-69 94 -73 152 -2 34 -9 68 -14 75 -6 6 -31 18 -57 26 -41 12 -47 17 -58 56
-7 23 -17 48 -24 56 -8 10 -7 25 5 59 15 45 14 49 -8 108 -54 140 -83 193
-131 235 -26 23 -56 42 -67 42 -10 0 -42 -14 -72 -30 -47 -27 -55 -29 -66 -15
-10 12 -10 28 0 82 11 59 21 79 75 148 34 44 84 121 110 170 l49 90 -3 111 -2
111 111 69 c103 64 112 72 122 111 12 41 13 42 80 59 70 17 98 34 98 59 0 8
-9 38 -20 66 -12 28 -19 52 -18 53 2 1 32 23 66 49 35 26 69 47 75 47 6 0 47
-8 90 -17 l79 -17 39 -58 c38 -56 41 -58 84 -58 56 0 71 20 80 106 4 34 10 66
14 71 3 5 76 28 162 51 169 46 340 68 446 58 50 -4 66 -2 81 12 35 31 212 361
230 428 20 76 36 83 116 55 30 -10 74 -22 98 -26 24 -4 66 -14 95 -22 52 -16
52 -16 90 10 21 14 104 58 185 98 l147 72 27 61 c43 96 51 149 41 296 l-2 35
105 6 c58 4 131 7 162 8 53 1 60 4 115 51 66 57 81 59 168 30z m1896 -144 c75
-79 86 -87 157 -110 121 -41 161 -37 319 34 75 33 143 60 152 60 38 -1 93 -31
205 -110 65 -47 144 -103 175 -125 102 -71 108 -78 151 -175 23 -52 47 -101
52 -107 8 -10 116 -13 479 -13 l469 0 0 -138 c0 -152 -3 -143 80 -242 64 -75
90 -124 90 -168 1 -66 18 -115 48 -142 18 -15 34 -41 40 -67 5 -24 41 -90 78
-148 78 -118 97 -149 117 -185 13 -23 9 -36 -67 -195 -45 -94 -103 -219 -130
-278 l-50 -107 -96 0 c-103 0 -224 -31 -243 -62 -16 -25 -3 -42 95 -121 111
-90 162 -142 298 -307 57 -69 119 -141 138 -161 l34 -36 -18 -107 c-16 -95
-17 -108 -3 -121 16 -16 194 -59 290 -70 l55 -6 58 -118 58 -118 -21 -244
c-12 -134 -24 -269 -27 -300 l-6 -56 -76 -13 c-43 -7 -95 -19 -116 -27 -34
-11 -46 -11 -92 4 -41 13 -63 14 -91 7 -29 -7 -57 -5 -113 8 -104 24 -171 23
-203 -2 -14 -11 -60 -63 -101 -114 l-76 -94 -35 -154 c-32 -139 -38 -155 -66
-177 l-30 -24 6 -96 c7 -110 -5 -184 -54 -321 -17 -47 -34 -113 -37 -147 -6
-58 -5 -65 21 -99 17 -22 28 -50 29 -71 1 -33 -1 -35 -58 -54 -76 -26 -115
-53 -163 -114 -29 -36 -58 -59 -106 -83 -37 -17 -71 -32 -77 -32 -19 0 -145
-54 -172 -74 -15 -11 -30 -28 -34 -38 -3 -11 -15 -18 -30 -18 -57 0 -64 -13
-64 -110 l0 -90 58 -54 c31 -29 87 -79 125 -111 l67 -57 0 -119 0 -118 -42
-70 -43 -71 -17 22 c-10 13 -18 26 -18 30 0 23 -57 122 -86 152 -27 28 -43 36
-70 36 -49 0 -88 -23 -107 -62 -23 -49 -134 -151 -288 -266 -75 -56 -145 -112
-156 -125 -13 -13 -36 -75 -58 -157 -20 -74 -48 -165 -62 -202 l-26 -66 -69
-4 c-67 -3 -69 -2 -74 22 -3 14 -9 32 -13 40 -4 8 -95 62 -202 119 -162 88
-203 105 -249 109 -43 4 -65 12 -99 38 -70 54 -81 49 -141 -65 -29 -55 -49
-76 -119 -128 -74 -56 -88 -63 -126 -61 -23 0 -47 -2 -53 -6 -6 -3 -16 -31
-23 -61 -10 -45 -17 -56 -42 -66 -33 -14 -45 -38 -73 -148 l-19 -74 -154 -75
-155 -74 -420 -8 -419 -9 -60 47 c-32 26 -68 53 -78 61 -14 10 -19 26 -19 61
0 57 -7 80 -25 80 -8 0 -27 12 -44 26 l-31 26 0 111 c-1 73 -5 117 -13 127
-15 19 -165 133 -196 149 -22 12 -55 11 -93 -4 -13 -5 -21 0 -29 19 -18 40
-57 47 -152 30 -135 -25 -167 -28 -167 -14 0 6 -15 36 -32 66 -39 63 -89 89
-160 82 -36 -4 -611 -155 -773 -203 -92 -28 -420 -115 -431 -115 -6 0 -21 33
-33 73 -13 39 -34 106 -48 147 -13 41 -27 99 -30 127 l-6 53 33 0 c43 0 194
84 208 115 6 13 18 67 27 120 14 80 24 108 56 158 36 56 39 65 39 134 0 72 1
74 46 133 36 46 55 61 81 66 31 6 39 2 77 -35 35 -34 51 -43 92 -47 47 -6 53
-10 108 -75 l58 -69 89 0 c83 0 90 2 99 23 15 36 41 416 30 437 -21 39 -11 70
39 123 56 61 71 86 71 122 0 40 29 70 111 113 58 31 95 42 164 52 50 7 104 21
121 31 17 10 47 19 65 19 19 1 52 9 74 20 22 11 50 19 62 20 12 0 43 18 68 40
36 31 55 40 83 40 63 1 134 33 210 94 57 46 72 64 70 82 -2 13 -65 88 -150
176 -84 89 -153 170 -162 192 -9 21 -38 66 -64 99 -43 54 -52 75 -75 169 -23
90 -27 130 -27 243 0 75 -4 145 -10 155 -5 10 -26 24 -46 30 -30 10 -42 9 -74
-5 -29 -13 -42 -14 -58 -6 -31 17 -103 13 -142 -7 -57 -28 -80 -73 -80 -154 0
-61 -19 -128 -36 -128 -3 0 -26 16 -51 35 -25 19 -54 35 -64 35 -10 0 -37 -24
-61 -54 -30 -38 -50 -55 -67 -55 -15 -1 -49 -26 -95 -71 -57 -55 -79 -70 -103
-70 -16 0 -100 32 -185 70 -112 50 -167 70 -197 70 l-41 0 0 48 c0 42 7 59 51
123 28 41 86 111 130 155 l79 82 0 91 c0 123 -8 131 -129 131 l-89 0 -67 -46
c-49 -33 -65 -41 -61 -27 3 10 15 48 26 85 l21 68 54 15 c53 16 111 57 260
184 l60 52 64 -7 c36 -3 69 -8 75 -10 6 -2 115 55 241 127 127 72 242 137 256
144 25 13 29 11 93 -46 l67 -59 104 0 c125 0 119 -6 163 150 54 189 103 354
105 356 68 50 110 72 146 77 24 3 48 11 52 19 5 7 9 83 9 168 l0 155 116 84
c63 47 120 93 125 104 6 10 9 57 8 105 -2 87 -2 87 39 151 23 35 42 69 42 76
0 21 -40 203 -50 231 -12 30 -2 44 193 288 49 61 94 121 99 133 13 28 -3 50
-49 70 -32 13 -33 15 -33 74 0 33 -6 72 -14 87 -11 22 -13 53 -8 142 l7 115
82 7 c53 5 102 17 140 34 32 14 108 34 169 45 61 10 173 37 250 60 76 23 171
50 209 61 65 19 77 27 170 117 134 128 230 181 332 181 l69 0 124 79 c69 43
131 79 137 80 7 1 49 -37 94 -83z m5989 -311 c11 -13 10 -22 -3 -51 -36 -74
-20 -134 59 -215 30 -32 54 -66 54 -76 0 -52 84 -133 137 -133 12 0 33 -18 52
-45 56 -78 105 -84 144 -17 l22 37 6 -50 c4 -28 14 -131 24 -230 l16 -180 -45
-149 c-25 -81 -46 -153 -46 -159 0 -6 16 -44 36 -85 19 -42 33 -83 31 -91 -3
-9 -50 -132 -106 -274 -55 -142 -101 -269 -101 -281 0 -16 23 -46 69 -90 87
-86 98 -93 157 -106 55 -13 85 -36 120 -96 28 -48 30 -78 19 -347 -7 -161 -6
-171 18 -250 14 -45 35 -133 47 -196 19 -100 20 -123 9 -180 -9 -54 -9 -83 4
-161 9 -52 19 -124 23 -160 3 -36 11 -73 16 -84 6 -10 55 -74 111 -143 90
-111 112 -132 219 -206 66 -45 175 -111 243 -147 68 -36 131 -72 140 -80 9 -8
57 -76 107 -150 l91 -135 23 -185 c13 -102 31 -202 41 -223 17 -40 82 -100
120 -111 50 -16 46 -32 -18 -66 l-62 -33 -71 16 c-82 18 -110 9 -121 -41 -6
-30 52 -245 83 -306 8 -16 66 -102 130 -190 63 -89 147 -207 186 -262 65 -93
139 -174 562 -614 56 -58 114 -119 130 -136 16 -17 70 -73 119 -125 133 -139
519 -542 609 -636 86 -90 116 -104 181 -83 30 10 42 9 72 -5 31 -15 41 -16 76
-4 36 12 43 11 76 -8 56 -33 74 -63 75 -131 1 -38 8 -69 20 -86 19 -30 71 -56
110 -56 27 0 50 -26 134 -152 48 -72 52 -81 52 -138 0 -58 -2 -63 -39 -98 -51
-49 -60 -91 -36 -180 11 -38 29 -77 42 -90 23 -23 24 -31 27 -185 3 -143 1
-166 -15 -199 -29 -58 -25 -115 13 -174 30 -45 32 -56 34 -139 l1 -90 87 -167
c47 -92 86 -179 86 -193 0 -14 7 -39 15 -55 13 -26 13 -30 -4 -51 l-18 -22
-33 23 c-39 28 -108 30 -146 5 -47 -31 -89 -167 -66 -212 8 -14 7 -35 -4 -78
-9 -33 -14 -73 -11 -89 3 -21 -3 -40 -17 -59 -17 -23 -21 -43 -21 -101 0 -80
18 -120 60 -136 19 -7 28 -24 44 -77 11 -37 42 -147 70 -243 28 -96 54 -183
57 -192 4 -15 -1 -18 -29 -18 -27 0 -46 -10 -85 -45 -27 -25 -52 -45 -55 -45
-4 0 -20 21 -38 46 -24 36 -32 58 -34 101 -3 78 -19 90 -130 104 -57 8 -109
21 -140 37 -125 62 -246 141 -316 207 l-77 71 -178 47 c-99 26 -258 67 -354
92 -96 25 -185 43 -198 40 -12 -3 -66 -26 -120 -51 -195 -91 -184 -88 -241
-69 -48 16 -51 19 -51 50 0 19 -5 46 -12 60 -13 28 -187 157 -245 182 -71 29
-135 3 -254 -103 l-50 -44 -71 7 c-65 6 -75 10 -110 44 -52 51 -76 54 -148 24
-40 -17 -69 -23 -86 -19 -24 6 -25 10 -20 48 7 49 -14 89 -66 130 -56 42 -89
44 -146 7 -75 -48 -125 -42 -203 26 -26 22 -84 55 -140 77 -76 32 -102 48
-136 86 -78 87 -177 114 -223 62 -18 -21 -55 -39 -139 -66 l-113 -38 -39 38
-40 39 -106 3 c-95 4 -108 2 -134 -17 -28 -21 -32 -21 -813 -21 l-786 0 -4 23
c-2 12 -23 425 -46 917 -23 492 -46 903 -51 913 -11 20 -50 22 -82 5 -12 -6
-42 -28 -66 -50 -24 -21 -52 -38 -62 -38 -11 0 -36 -15 -56 -33 -21 -18 -50
-38 -65 -45 -17 -7 -37 -31 -53 -62 -14 -28 -33 -54 -42 -57 -27 -10 -106 16
-147 50 -32 25 -51 32 -100 35 -34 3 -73 13 -90 23 -53 32 -138 20 -151 -20
-6 -20 -7 -20 -28 7 -13 15 -29 40 -37 56 -20 38 -48 56 -91 56 -18 0 -67 0
-108 0 -54 0 -82 -5 -105 -18 -22 -13 -41 -16 -66 -11 -19 4 -64 13 -100 19
-36 7 -83 23 -106 36 -47 27 -74 30 -112 10 -23 -12 -41 -12 -132 4 -132 22
-179 41 -259 102 -35 26 -67 48 -71 48 -4 0 -10 100 -12 222 l-5 223 -74 163
-73 164 -109 99 c-59 54 -142 142 -184 195 l-75 97 7 165 7 165 51 86 c27 47
55 93 62 101 8 11 10 58 6 168 l-6 154 -30 25 c-16 14 -72 62 -122 107 -88 77
-93 83 -93 121 0 37 3 42 32 50 19 6 38 22 48 40 18 33 74 65 160 90 94 28
185 82 225 133 40 51 108 102 136 102 23 0 69 19 92 38 28 24 24 129 -8 176
-32 48 -32 78 5 186 48 143 61 214 59 322 -2 96 -1 101 24 122 21 17 31 45 58
166 17 80 36 154 42 165 6 11 40 57 76 103 l65 82 48 0 c26 0 81 -7 123 -17
58 -12 83 -14 110 -6 28 9 44 8 84 -7 47 -18 50 -18 109 -1 33 10 99 24 146
31 48 8 91 19 97 26 6 7 23 160 39 341 l29 328 -72 145 -72 145 -50 8 c-91 14
-270 49 -274 52 -1 2 4 43 12 92 8 48 11 97 7 108 -4 11 -31 47 -60 79 -29 33
-106 124 -171 202 -66 79 -140 160 -165 181 -26 21 -66 54 -89 74 l-43 36 32
11 c18 7 80 12 139 12 100 0 107 1 121 23 8 12 58 116 111 232 54 115 115 245
136 288 27 54 37 85 33 101 -6 25 -46 92 -103 176 -94 137 -111 167 -111 197
0 24 -10 42 -37 69 -33 33 -38 45 -44 105 -9 83 -30 124 -108 214 l-61 70 0
133 0 132 1161 0 1162 0 187 75 c103 41 198 75 211 75 13 0 44 -14 68 -30 24
-17 56 -30 70 -30 14 0 141 11 281 25 140 14 262 25 272 25 9 0 29 14 45 30
27 29 32 30 109 30 70 0 86 3 115 24 41 29 53 31 69 11z m-11359 -1950 c-6
-24 -11 -54 -11 -66 0 -25 72 -99 97 -99 9 0 41 14 71 31 l54 31 34 -32 c21
-21 48 -69 74 -132 41 -100 41 -100 26 -145 -15 -44 -15 -47 9 -98 14 -28 25
-58 25 -66 0 -26 29 -57 60 -64 43 -10 60 -31 60 -76 0 -22 5 -50 11 -61 22
-41 161 -213 179 -222 23 -10 84 0 98 17 5 6 19 44 31 83 22 74 33 86 139 158
50 34 54 39 61 85 l6 35 100 17 c174 31 172 31 184 -63 5 -44 11 -56 37 -73
27 -17 33 -30 43 -85 17 -93 28 -105 103 -120 51 -9 72 -19 110 -54 l46 -43
-55 -44 c-30 -24 -76 -61 -101 -81 -26 -21 -75 -47 -109 -58 -71 -24 -77 -30
-92 -87 -6 -23 -20 -70 -31 -104 -28 -88 -27 -115 10 -134 16 -8 35 -15 41
-15 7 0 45 23 85 50 67 47 76 50 133 50 l61 0 0 -58 c0 -57 0 -58 -61 -117
-54 -53 -77 -84 -166 -214 -20 -29 -23 -46 -23 -122 0 -109 8 -119 89 -119 50
0 78 -9 215 -71 144 -65 162 -71 208 -67 45 5 56 11 116 70 37 36 79 68 95 72
25 6 56 34 91 81 13 18 15 18 51 -10 66 -53 73 -57 95 -50 12 4 34 34 55 76
30 58 35 79 35 137 0 53 4 73 18 85 29 26 64 29 101 9 34 -19 68 -15 110 12
24 15 31 -16 31 -144 0 -102 5 -146 27 -238 24 -101 32 -119 75 -171 26 -33
58 -83 72 -113 18 -40 57 -86 155 -183 72 -71 131 -132 131 -135 0 -9 -98 -80
-125 -90 -14 -5 -53 -14 -87 -20 -47 -7 -69 -17 -93 -40 -31 -30 -84 -51 -192
-75 -34 -8 -72 -20 -85 -29 -13 -8 -62 -20 -110 -26 -72 -9 -103 -19 -177 -57
-101 -51 -141 -95 -141 -152 0 -27 -12 -46 -60 -97 -69 -74 -78 -99 -61 -165
10 -38 10 -84 0 -223 l-13 -176 -41 0 c-39 0 -46 4 -96 63 -66 76 -64 75 -119
83 -34 5 -56 17 -93 51 -44 41 -52 45 -85 39 -91 -15 -105 -23 -167 -103 l-59
-78 -6 -85 c-5 -75 -9 -90 -38 -130 -27 -38 -35 -63 -49 -153 l-17 -108 -62
-34 c-72 -41 -104 -45 -104 -14 0 34 -19 59 -46 59 -13 0 -36 8 -50 17 -22 14
-32 15 -70 5 -24 -7 -71 -12 -104 -12 l-60 0 -48 -61 c-26 -34 -68 -92 -94
-131 -46 -67 -48 -72 -48 -141 0 -58 -8 -92 -39 -177 l-38 -105 -147 -88 c-80
-48 -150 -86 -154 -83 -5 3 -53 67 -108 142 -109 151 -271 330 -373 412 -36
29 -67 56 -68 60 -2 4 11 17 28 28 16 12 59 47 95 78 70 62 82 96 43 117 -21
11 -155 7 -251 -7 l-38 -6 0 62 c0 57 -5 72 -55 162 -68 125 -72 136 -48 153
15 11 19 30 21 109 2 53 8 96 12 96 5 0 17 -11 27 -23 27 -34 56 -47 106 -47
82 0 122 58 94 137 -8 23 -12 54 -9 71 6 46 -16 102 -45 113 -13 5 -44 9 -69
9 -47 0 -51 5 -29 34 21 27 20 125 -1 155 -18 25 -38 25 -121 0 -34 -10 -50
-11 -76 -1 -18 7 -48 12 -65 12 -39 0 -66 -36 -64 -86 l1 -34 -72 6 c-65 6
-74 4 -91 -15 -16 -17 -18 -31 -14 -86 l6 -65 -101 0 -101 0 71 73 c67 68 106
128 195 305 l22 42 76 0 c61 0 80 4 92 18 28 32 118 190 118 206 0 14 -64 152
-77 166 -2 3 -53 7 -111 10 l-107 5 -3 33 c-5 54 27 130 106 251 101 156 99
150 73 214 -21 51 -21 59 -10 166 l12 112 70 84 70 85 78 0 c92 0 102 9 93 86
-5 44 -2 54 31 104 21 30 56 69 79 85 l41 31 6 84 c3 47 9 96 13 110 4 14 48
59 97 100 88 74 102 94 113 158 5 26 1 38 -17 56 -13 13 -29 25 -37 28 -11 3
-8 20 15 83 29 82 61 125 91 125 28 0 104 69 104 94 0 13 -39 79 -86 147 -137
197 -174 266 -174 327 0 48 2 52 23 52 14 0 40 18 67 45 43 44 101 72 109 53
1 -5 -2 -29 -8 -53z m6601 -4170 c13 -14 48 -75 79 -137 l57 -113 -8 -160 c-4
-88 -4 -169 0 -181 5 -12 21 -37 37 -55 16 -19 48 -60 72 -91 24 -32 91 -101
150 -155 l106 -96 68 -144 c63 -134 68 -152 77 -241 5 -54 10 -163 10 -244 l0
-147 59 -40 c32 -22 66 -47 74 -55 30 -31 133 -69 235 -87 127 -23 171 -24
199 -4 19 13 23 13 44 -3 29 -23 54 -32 96 -38 18 -2 58 -11 90 -19 78 -20
119 -19 160 6 30 18 38 20 64 9 24 -10 38 -10 72 0 39 12 42 11 62 -14 53 -68
65 -85 65 -99 0 -7 9 -22 19 -31 30 -27 78 -13 103 30 23 40 36 41 95 13 30
-14 56 -20 81 -16 29 3 42 -1 62 -19 39 -35 123 -64 189 -64 64 0 84 14 116
83 10 22 31 44 49 54 17 8 42 26 56 38 14 13 36 26 50 30 14 4 42 23 62 43 21
20 39 34 41 31 2 -2 12 -173 21 -379 17 -377 50 -1050 62 -1277 l6 -123 -416
0 -416 0 0 58 c-1 69 -10 86 -76 146 -55 49 -89 66 -132 66 -15 0 -37 7 -49
15 -12 8 -44 20 -72 26 -57 12 -113 -1 -206 -50 l-50 -26 -310 0 c-170 -1
-356 -6 -412 -12 -83 -10 -121 -9 -200 3 -54 8 -134 19 -178 25 -95 11 -100
13 -190 49 -97 38 -249 57 -336 41 -62 -12 -66 -12 -132 18 -38 17 -81 31 -95
31 -15 0 -72 -14 -126 -30 l-99 -30 -611 0 -612 0 -72 35 c-127 61 -110 60
-538 35 -457 -26 -435 -20 -416 -122 11 -60 11 -64 -13 -98 -19 -27 -25 -49
-25 -88 l0 -52 -1676 0 -1675 0 -180 103 -180 102 4 370 c3 346 5 380 30 530
25 147 73 457 117 747 l17 117 77 102 c42 57 76 109 76 117 0 13 -34 126 -106
354 -19 59 -34 114 -34 123 0 8 65 53 156 107 85 50 160 100 166 111 5 10 27
67 49 124 31 85 39 120 40 177 l0 71 73 100 c61 84 76 100 101 102 17 2 54 8
83 14 41 8 61 8 83 -1 l29 -12 0 -91 c0 -81 5 -108 56 -271 31 -100 61 -187
66 -193 6 -7 21 -13 34 -13 13 0 216 52 451 116 478 129 484 130 641 173 129
36 192 39 214 14 9 -10 26 -42 39 -70 35 -77 52 -81 201 -53 119 23 121 23
134 4 32 -45 35 -47 99 -41 l62 6 76 -57 76 -57 1 -113 0 -113 55 -55 c47 -47
55 -61 55 -92 0 -20 4 -42 8 -48 4 -6 48 -43 97 -83 l90 -73 444 7 444 8 176
86 176 86 17 60 c9 33 22 78 27 100 8 31 19 44 48 60 33 17 39 26 47 68 8 46
10 49 36 44 31 -7 60 9 170 93 60 46 83 71 109 119 l33 62 34 -31 c30 -26 43
-30 90 -30 56 0 103 -21 374 -168 30 -17 36 -27 51 -87 24 -92 51 -109 91 -55
20 28 26 30 89 30 41 0 71 5 77 13 19 23 69 161 107 299 l38 137 165 123 c151
113 247 204 297 281 21 33 28 34 57 2z"/>
</g>
</svg>
